<?xml version="1.0" encoding="utf-8"?>
<!-- Generator: Adobe Illustrator 22.0.0, SVG Export Plug-In . SVG Version: 6.00 Build 0)  -->
<svg version="1.1" id="Layer_1" xmlns="http://www.w3.org/2000/svg" xmlns:xlink="http://www.w3.org/1999/xlink" x="0px" y="0px"
	 viewBox="0 0 1066.9 736.3" style="enable-background:new 0 0 1066.9 736.3;" xml:space="preserve">
<style type="text/css">
	.st0{fill:none;stroke:#000000;stroke-width:0.1;stroke-miterlimit:10;}
</style>
<circle class="st0" cx="355.8" cy="272" r="35.4"/>
<circle class="st0" cx="214" cy="242.7" r="4.3"/>
<circle class="st0" cx="271" cy="242.7" r="4.3"/>
<circle class="st0" cx="271" cy="307.5" r="4.3"/>
<circle class="st0" cx="214" cy="307.5" r="4.3"/>
<path class="st0" d="M269.1,288.1h-53.4c-2.7,0-4.8-2.2-4.8-4.8v-25.2c0-2.7,2.2-4.8,4.8-4.8h53.4c2.7,0,4.8,2.2,4.8,4.8v25.2
	C274,285.9,271.8,288.1,269.1,288.1z"/>
<polygon class="st0" points="466.4,102.9 466.4,32 455.1,32 419.6,32 419.6,20.7 348.8,20.7 348.8,32 277.9,32 277.9,20.7 207,20.7 
	207,32 136.2,32 136.2,20.7 65.3,20.7 65.3,32 29.9,32 18.5,32 18.5,102.9 29.9,102.9 29.9,166.6 18.5,166.6 18.5,237.5 29.9,237.5 
	29.9,301.3 18.5,301.3 18.5,372.2 29.9,372.2 65.3,372.2 65.3,383.5 136.2,383.5 136.2,372.2 207,372.2 207,383.5 277.9,383.5 
	277.9,372.2 348.8,372.2 348.8,383.5 419.6,383.5 419.6,372.2 455.1,372.2 466.4,372.2 466.4,301.3 455.1,301.3 455.1,237.5 
	466.4,237.5 466.4,166.6 455.1,166.6 455.1,102.9 "/>
<polygon class="st0" points="466.1,32 466.1,102.9 455,102.9 455,166.6 466.1,166.6 466.1,237.5 455,237.5 455,301.3 466.1,301.3 
	466.1,372.1 596.7,372.1 596.7,32 "/>
<polygon class="st0" points="891.2,32 891.2,102.9 880,102.9 880,166.6 891.2,166.6 891.2,237.5 880,237.5 880,301.3 891.2,301.3 
	891.2,372.1 1021.7,372.1 1021.7,32 "/>
<polygon class="st0" points="738.3,32 596.7,32 596.7,43.4 596.7,78.8 608,78.8 608,149.7 596.7,149.7 596.7,220.5 608,220.5 
	608,291.4 596.7,291.4 596.7,362.3 608,362.3 608,433.1 596.7,433.1 596.7,468.6 596.7,479.9 738.3,479.9 "/>
<polygon class="st0" points="880,32 738.3,32 738.3,43.4 738.3,78.8 749.7,78.8 749.7,149.7 738.3,149.7 738.3,220.5 749.7,220.5 
	749.7,291.4 738.3,291.4 738.3,362.3 749.7,362.3 749.7,433.1 738.3,433.1 738.3,468.6 738.3,479.9 880,479.9 "/>
<circle class="st0" cx="52.1" cy="435" r="34"/>
<circle class="st0" cx="126.3" cy="435" r="34"/>
<path class="st0" d="M126.3,426.2c-1.5,0-3,0.4-4.3,1.1v15.4c1.3,0.7,2.7,1.1,4.3,1.1c4.9,0,8.8-3.9,8.8-8.8
	S131.1,426.2,126.3,426.2z"/>
<circle class="st0" cx="198.7" cy="435" r="34"/>
<path class="st0" d="M198.7,426.2c-1.5,0-3,0.4-4.3,1.1v15.4c1.3,0.7,2.7,1.1,4.3,1.1c4.9,0,8.8-3.9,8.8-8.8
	S203.5,426.2,198.7,426.2z"/>
<circle class="st0" cx="273.8" cy="435" r="34"/>
<path class="st0" d="M273.8,426.2c-1.5,0-3,0.4-4.3,1.1v15.4c1.3,0.7,2.7,1.1,4.3,1.1c4.9,0,8.8-3.9,8.8-8.8
	S278.7,426.2,273.8,426.2z"/>
<circle class="st0" cx="346.2" cy="435" r="34"/>
<path class="st0" d="M346.2,426.2c-1.5,0-3,0.4-4.3,1.1v15.4c1.3,0.7,2.7,1.1,4.3,1.1c4.9,0,8.8-3.9,8.8-8.8
	S351.1,426.2,346.2,426.2z"/>
<circle class="st0" cx="126.3" cy="509.7" r="34"/>
<path class="st0" d="M126.3,500.9c-1.5,0-3,0.4-4.3,1.1v15.4c1.3,0.7,2.7,1.1,4.3,1.1c4.9,0,8.8-3.9,8.8-8.8
	S131.1,500.9,126.3,500.9z"/>
<circle class="st0" cx="198.7" cy="509.7" r="34"/>
<path class="st0" d="M198.7,500.9c-1.5,0-3,0.4-4.3,1.1v15.4c1.3,0.7,2.7,1.1,4.3,1.1c4.9,0,8.8-3.9,8.8-8.8
	S203.5,500.9,198.7,500.9z"/>
<circle class="st0" cx="273.8" cy="509.7" r="34"/>
<path class="st0" d="M273.8,500.9c-1.5,0-3,0.4-4.3,1.1v15.4c1.3,0.7,2.7,1.1,4.3,1.1c4.9,0,8.8-3.9,8.8-8.8
	S278.7,500.9,273.8,500.9z"/>
<circle class="st0" cx="346.2" cy="509.7" r="34"/>
<path class="st0" d="M346.2,500.9c-1.5,0-3,0.4-4.3,1.1v15.4c1.3,0.7,2.7,1.1,4.3,1.1c4.9,0,8.8-3.9,8.8-8.8
	S351.1,500.9,346.2,500.9z"/>
<circle class="st0" cx="126.3" cy="584.5" r="34"/>
<path class="st0" d="M126.3,575.7c-1.5,0-3,0.4-4.3,1.1v15.4c1.3,0.7,2.7,1.1,4.3,1.1c4.9,0,8.8-3.9,8.8-8.8
	S131.1,575.7,126.3,575.7z"/>
<circle class="st0" cx="198.7" cy="584.5" r="34"/>
<path class="st0" d="M198.7,575.7c-1.5,0-3,0.4-4.3,1.1v15.4c1.3,0.7,2.7,1.1,4.3,1.1c4.9,0,8.8-3.9,8.8-8.8
	S203.5,575.7,198.7,575.7z"/>
<circle class="st0" cx="273.8" cy="584.5" r="34"/>
<path class="st0" d="M273.8,575.7c-1.5,0-3,0.4-4.3,1.1v15.4c1.3,0.7,2.7,1.1,4.3,1.1c4.9,0,8.8-3.9,8.8-8.8
	S278.7,575.7,273.8,575.7z"/>
<circle class="st0" cx="346.2" cy="584.5" r="34"/>
<path class="st0" d="M346.2,575.7c-1.5,0-3,0.4-4.3,1.1v15.4c1.3,0.7,2.7,1.1,4.3,1.1c4.9,0,8.8-3.9,8.8-8.8
	S351.1,575.7,346.2,575.7z"/>
<circle class="st0" cx="126.3" cy="659.3" r="34"/>
<path class="st0" d="M126.3,650.5c-1.5,0-3,0.4-4.3,1.1V667c1.3,0.7,2.7,1.1,4.3,1.1c4.9,0,8.8-3.9,8.8-8.8S131.1,650.5,126.3,650.5
	z"/>
<circle class="st0" cx="198.7" cy="659.3" r="34"/>
<path class="st0" d="M198.7,650.5c-1.5,0-3,0.4-4.3,1.1V667c1.3,0.7,2.7,1.1,4.3,1.1c4.9,0,8.8-3.9,8.8-8.8S203.5,650.5,198.7,650.5
	z"/>
<circle class="st0" cx="273.8" cy="659.3" r="34"/>
<path class="st0" d="M273.8,650.5c-1.5,0-3,0.4-4.3,1.1V667c1.3,0.7,2.7,1.1,4.3,1.1c4.9,0,8.8-3.9,8.8-8.8S278.7,650.5,273.8,650.5
	z"/>
<circle class="st0" cx="346.2" cy="659.3" r="34"/>
<path class="st0" d="M346.2,650.5c-1.5,0-3,0.4-4.3,1.1V667c1.3,0.7,2.7,1.1,4.3,1.1c4.9,0,8.8-3.9,8.8-8.8S351.1,650.5,346.2,650.5
	z"/>
</svg>
